<svg xmlns="http://www.w3.org/2000/svg" width="128px" height="128px" viewBox="0 0 24 24"><path fill="#e4393c" d="M5.52 20.596V15.46q0-.404.189-.768q.189-.363.537-.58l1.196-.783q.175 1.754.454 3.036t.906 2.91zm4.051-1.788q-.605-1.535-.934-3.144t-.33-3.277q0-2.645.902-4.859q.9-2.214 2.791-3.928q1.89 1.714 2.791 3.928t.901 4.859q0 1.661-.329 3.268q-.328 1.607-.934 3.153zM12 12.5q.633 0 1.066-.434q.434-.433.434-1.066t-.434-1.066T12 9.5t-1.066.434Q10.5 10.367 10.5 11t.434 1.066T12 12.5m6.462 8.096l-3.283-1.302q.627-1.627.906-2.919t.454-3.046l1.196.802q.348.217.537.58q.19.364.19.768z"/></svg>